<svg width="70" height="70" viewBox="0 0 70 70" fill="none" xmlns="http://www.w3.org/2000/svg">
<circle cx="35" cy="35" r="35" fill="#01A7E5"/>
<path d="M53.2973 15.2508C52.1423 14.2188 50.8245 13.3788 49.3875 12.7983C47.9153 12.2035 46.3418 11.887 44.7578 11.8105C44.4758 11.797 44.193 11.791 43.911 11.791C42.4328 11.7948 40.9148 12.1788 39.519 12.9025C37.317 14.0448 34.6898 14.044 32.4885 12.9025C31.0928 12.1788 29.574 11.7948 28.0965 11.791C26.5058 11.791 24.9158 12.0085 23.403 12.511C21.933 12.9993 20.5575 13.75 19.3455 14.7138C19.1295 14.8855 18.9173 15.0648 18.711 15.25C15.6503 17.9928 14.0168 22.0923 14.229 26.5C14.4338 30.4893 15.7515 35.8225 20.7338 38.9808C20.7053 40.09 20.6828 41.2315 20.7608 42.3858C20.814 43.0878 20.8748 43.8835 20.9993 44.674C21.6743 49.0405 23.0063 53.9223 27.7658 57.0205C28.908 57.7638 30.7553 58.8408 32.004 57.6693C32.8755 56.851 33.0938 55.3758 33.1553 54.2395C33.1575 54.1863 33.4463 49.2963 36.0383 44.4633C37.0853 46.1905 38.7233 49.6255 39.303 54.889C39.4658 56.3665 40.1025 58.2093 41.8935 58.2093C42.8258 58.2093 43.6703 57.6933 44.0063 57.4885C46.8248 55.7688 48.7913 53.4303 50.0183 50.341C51.483 46.6675 51.627 43.0945 51.3383 38.9463C56.2905 35.77 57.5828 30.463 57.7688 26.4918C57.9923 22.0855 56.3618 17.9883 53.2973 15.2508ZM41.7435 34.552C40.4655 33.6528 38.6858 32.6508 36.6435 31.9045C36.1965 31.741 35.7968 31.627 35.358 31.9045C33.321 32.6485 31.545 33.6468 30.2685 34.5445C30.0465 31.615 29.1885 28.6593 28.392 26.5143L33.714 27.8958C35.3655 28.3255 37.1093 28.315 38.7548 27.8658L43.5908 26.506C42.813 28.6743 41.9625 31.6278 41.7435 34.552ZM36.7928 41.6343C36.558 41.374 36.219 41.2383 35.8673 41.266C35.5185 41.2938 35.202 41.4828 35.0123 41.7775C31.2968 47.5315 30.924 53.854 30.9105 54.1188C30.9098 54.127 30.9083 54.1345 30.9083 54.1428C27.9668 47.08 29.796 39.0325 30.1845 37.519C30.612 37.0038 32.9198 35.218 36.0008 34.0653C39.1283 35.2353 41.4615 37.06 41.8373 37.543C42.2835 39.0123 44.5268 47.221 41.5035 54.361C40.4963 45.8418 36.9458 41.8023 36.7928 41.6343ZM28.83 55.0188C24.948 52.393 23.8125 48.1495 23.2215 44.3253C23.1105 43.6218 23.0535 42.8733 23.004 42.2223C22.9275 41.101 22.9568 39.9843 22.9875 38.8C23.004 38.1295 22.929 37.6758 22.3125 37.3173C17.8208 34.708 16.6568 29.935 16.4745 26.3853C16.2953 22.6608 17.6565 19.2115 20.211 16.9225C21.7508 15.5425 23.6393 14.6215 25.6725 14.248C27.6465 13.8858 29.643 13.9593 31.4513 14.8968C34.3005 16.3743 37.7033 16.375 40.5533 14.8968C41.6318 14.3373 42.7943 14.0403 43.9155 14.038C45.4913 14.038 47.0655 14.2915 48.531 14.881C49.7295 15.3633 50.8343 16.0615 51.7958 16.924C54.351 19.207 55.71 22.6518 55.5225 26.3785C55.356 29.9515 54.1965 34.7545 49.6238 37.3683C49.287 37.561 49.0148 38.0298 49.0523 38.4415C49.38 42.5733 49.314 46.0353 47.9295 49.507C47.016 51.8073 45.6203 53.6148 43.6793 55.0075C45.8828 49.6353 45.7335 43.3825 44.2605 37.834C43.3515 34.411 44.5425 30.5178 45.7073 27.265C45.987 26.4843 45.8108 25.6218 45.2475 25.0113C44.6783 24.3978 43.8233 24.1525 43.02 24.3715L38.1615 25.6938C36.8933 26.0388 35.5508 26.047 34.2773 25.717L28.9553 24.3355C28.152 24.1263 27.3045 24.3783 26.7443 24.9918C26.1878 25.6015 26.0153 26.461 26.2935 27.2358C27.405 30.3325 28.605 33.7983 27.951 37.126C27.5123 39.3565 27.1088 41.5428 27.0173 43.825C26.9445 45.643 27.0188 47.4693 27.276 49.2708C27.4845 50.7288 27.8175 52.1853 28.2878 53.5818C28.2878 53.5818 28.6208 54.7608 28.83 55.0188Z" fill="white" stroke="#01A7E5" stroke-width="0.7"/>
</svg>
