<svg width="18" height="17" viewBox="0 0 18 17" fill="none" xmlns="http://www.w3.org/2000/svg">
<path d="M5 14.2265C4.2 14.2265 3.4 13.5394 3 13.2449C1 11.8707 0.4 11.3799 0 11.0854V15.2081C0 15.7501 0.447812 16.1896 1 16.1896H9C9.55219 16.1896 10 15.7501 10 15.2081V11.0854C9.6 11.3799 9 11.8707 7 13.2449C6.6 13.5394 5.8 14.2265 5 14.2265ZM9 8.33701H1C0.447812 8.33701 0 8.77657 0 9.31859V9.80938C0.8 10.3983 0.7 10.3983 3.6 12.4596C3.9 12.656 4.5 13.2449 5 13.2449C5.5 13.2449 6.1 12.656 6.4 12.5578C9.3 10.4965 9.2 10.4965 10 9.90754V9.31859C10 8.77657 9.55219 8.33701 9 8.33701ZM17 5.39227H7C6.44781 5.39227 6 5.83184 6 6.37385V7.35543H9C10.0378 7.35543 10.8934 8.13517 10.9909 9.12902L11 9.12227V13.2449H17C17.5522 13.2449 18 12.8053 18 12.2633V6.37385C18 5.83184 17.5522 5.39227 17 5.39227ZM16 9.31859H14V7.35543H16V9.31859ZM5 6.37385C5 5.29135 5.89719 4.41069 7 4.41069H14V1.46595C14 0.923939 13.5522 0.484375 13 0.484375H3C2.44781 0.484375 2 0.923939 2 1.46595V7.35543H5V6.37385Z" fill="#01A7E5"/>
</svg>
