<svg width="17" height="18" viewBox="0 0 17 18" fill="none" xmlns="http://www.w3.org/2000/svg">
<path d="M16.5152 12.2388L12.7964 10.6744C12.6375 10.6079 12.461 10.5939 12.2933 10.6345C12.1256 10.675 11.9759 10.7679 11.8667 10.8993L10.2198 12.8743C7.63511 11.6781 5.55505 9.63639 4.3364 7.09934L6.34855 5.48277C6.48258 5.37577 6.57745 5.22881 6.61879 5.06414C6.66013 4.89948 6.64569 4.72608 6.57765 4.57019L4.98388 0.919881C4.90921 0.751839 4.77714 0.614639 4.61045 0.531937C4.44376 0.449236 4.2529 0.426218 4.07077 0.466851L0.617589 1.24906C0.441997 1.28886 0.285334 1.38591 0.173169 1.52436C0.0610036 1.66281 -4.04491e-05 1.8345 2.01088e-08 2.01139C2.01088e-08 10.3713 6.90305 17.1341 15.4065 17.1341C15.5868 17.1342 15.7618 17.0743 15.9029 16.9642C16.044 16.8541 16.1429 16.7003 16.1835 16.5279L16.9804 13.1383C17.0215 12.9587 16.9976 12.7706 16.9127 12.6064C16.8277 12.4422 16.6872 12.3122 16.5152 12.2388Z" fill="#01A7E5"/>
</svg>
