<svg width="70" height="70" viewBox="0 0 70 70" fill="none" xmlns="http://www.w3.org/2000/svg">
<circle cx="35" cy="35" r="35" fill="#25B4F8"/>
<g clip-path="url(#clip0_19_16)">
<path d="M18.0692 30.1796C20.2678 34.3768 23.6254 36.9832 26.8449 38.5992C31.99 41.1816 37.5275 41.5076 42.7602 39.5802L42.8554 39.5454" stroke="white" stroke-width="1.5" stroke-miterlimit="10" stroke-linecap="round" stroke-linejoin="round"/>
<path d="M45.8091 38.1816C48.7694 36.5456 51.7673 34.0367 53.7863 30.196" stroke="white" stroke-width="1.5" stroke-miterlimit="10" stroke-linecap="round" stroke-linejoin="round"/>
<path d="M12.6931 29.5166C13.4966 30.4822 14.3059 31.4408 15.1171 32.3972C19.1876 37.1967 23.1466 41.9178 28.4514 44.7796C33.5462 47.5283 38.4405 47.5353 43.5487 44.7795C48.8533 41.9178 52.8124 37.1967 56.8828 32.3972C57.694 31.4408 58.5034 30.4822 59.3068 29.5166" stroke="white" stroke-width="1.5" stroke-miterlimit="10" stroke-linecap="round" stroke-linejoin="round"/>
<path d="M31.4174 31.1345V34.2529C31.4174 34.7475 31.8182 35.1484 32.3129 35.1484H35.085C35.5795 35.1484 35.9805 34.7475 35.9805 34.2529V31.2263" stroke="white" stroke-width="1.5" stroke-miterlimit="10" stroke-linecap="round" stroke-linejoin="round"/>
<path d="M35.9875 31.2263V34.2529C35.9875 34.7476 36.3885 35.1484 36.883 35.1484H39.6552C40.1498 35.1484 40.5506 34.7476 40.5506 34.2529V31.1345" stroke="white" stroke-width="1.5" stroke-miterlimit="10" stroke-linecap="round" stroke-linejoin="round"/>
<path d="M40.5825 31.1345V34.3765C40.5825 34.8028 40.9282 35.1484 41.3545 35.1484H43.744C44.1702 35.1484 44.5158 34.8028 44.5158 34.3765V30.9528" stroke="white" stroke-width="1.5" stroke-miterlimit="10" stroke-linecap="round" stroke-linejoin="round"/>
<path d="M44.5159 30.954V33.0646C44.5159 33.4679 44.8429 33.7949 45.2462 33.7949H47.507C47.9104 33.7949 48.2374 33.4679 48.2374 33.0646V30.7034" stroke="white" stroke-width="1.5" stroke-miterlimit="10" stroke-linecap="round" stroke-linejoin="round"/>
<path d="M31.4173 31.1345V34.3765C31.4173 34.8028 31.0716 35.1484 30.6454 35.1484H28.2559C27.8296 35.1484 27.484 34.8028 27.484 34.3765V30.9528" stroke="white" stroke-width="1.5" stroke-miterlimit="10" stroke-linecap="round" stroke-linejoin="round"/>
<path d="M27.4841 30.9541V33.0646C27.4841 33.4679 27.1571 33.7949 26.7538 33.7949H24.493C24.0896 33.7949 23.7626 33.4679 23.7626 33.0646V30.7034" stroke="white" stroke-width="1.5" stroke-miterlimit="10" stroke-linecap="round" stroke-linejoin="round"/>
<path d="M27.4425 22.1329C30.3598 21.0673 33.3401 20.8752 36.0001 23.19C41.1946 18.6695 47.6107 23.7099 52.3933 26.1439C54.6781 27.3068 57.0023 28.381 59.2972 29.5213C59.2972 29.5213 48.2394 31.1698 36.0098 31.2264V31.2266C36.0066 31.2266 36.0033 31.2265 36.0001 31.2265C35.9969 31.2265 35.9936 31.2266 35.9903 31.2266V31.2264C23.7607 31.1698 12.703 29.5213 12.703 29.5213C14.9979 28.381 17.3221 27.3068 19.6068 26.1439C21.0676 25.4005 22.6806 24.414 24.3648 23.531L24.5072 23.4567" stroke="white" stroke-width="1.5" stroke-miterlimit="10" stroke-linecap="round" stroke-linejoin="round"/>
<path d="M51.3602 45.0441C51.0561 45.689 50.1753 47.2639 48.6232 47.7996C48.5029 47.8412 48.5029 48.0123 48.6232 48.0538C50.1753 48.5895 51.0561 50.1644 51.3602 50.8093C51.4089 50.9125 51.5558 50.9125 51.6044 50.8093C51.9085 50.1644 52.7893 48.5895 54.3415 48.0538C54.4617 48.0123 54.4617 47.8412 54.3415 47.7996C52.7893 47.2639 51.9085 45.689 51.6044 45.0441C51.5558 44.9409 51.4089 44.9409 51.3602 45.0441Z" stroke="white" stroke-width="1.5" stroke-miterlimit="10" stroke-linecap="round" stroke-linejoin="round"/>
<path d="M21.4622 12.7672C21.0433 13.6555 19.8302 15.8247 17.6924 16.5625C17.5267 16.6197 17.5267 16.8554 17.6924 16.9126C19.8302 17.6504 21.0433 19.8197 21.4622 20.7079C21.5292 20.85 21.7316 20.85 21.7986 20.7079C22.2175 19.8197 23.4306 17.6504 25.5684 16.9126C25.734 16.8554 25.734 16.6197 25.5684 16.5625C23.4306 15.8247 22.2175 13.6555 21.7986 12.7672C21.7316 12.6251 21.5292 12.6251 21.4622 12.7672Z" stroke="white" stroke-width="1.5" stroke-miterlimit="10" stroke-linecap="round" stroke-linejoin="round"/>
<path d="M44.4408 49.2907C44.0219 50.179 42.8088 52.3481 40.671 53.086C40.5053 53.1431 40.5053 53.3788 40.671 53.436C42.8088 54.1738 44.0219 56.3431 44.4408 57.2313C44.5077 57.3734 44.7101 57.3734 44.7772 57.2313C45.196 56.3431 46.4092 54.1738 48.5469 53.436C48.7126 53.3788 48.7126 53.1431 48.5469 53.086C46.4092 52.3481 45.196 50.179 44.7772 49.2907C44.7101 49.1485 44.5077 49.1485 44.4408 49.2907Z" stroke="white" stroke-width="1.5" stroke-miterlimit="10" stroke-linecap="round" stroke-linejoin="round"/>
</g>
<defs>
<clipPath id="clip0_19_16">
<rect width="48" height="48" fill="white" transform="translate(12 11)"/>
</clipPath>
</defs>
</svg>
