<svg width="70" height="70" viewBox="0 0 70 70" fill="none" xmlns="http://www.w3.org/2000/svg">
<circle cx="35" cy="35" r="35" fill="#25B4F8"/>
<g clip-path="url(#clip0_19_14)">
<path d="M51.9598 18.9175C51.7807 18.5729 51.3559 18.4385 51.0116 18.6175C50.667 18.7966 50.5326 19.221 50.7117 19.5657C51.6291 21.3315 51.8217 23.361 51.2541 25.28C51.0278 26.0468 49.0396 32.7807 48.9528 33.115C48.9356 33.1817 48.8759 33.2286 48.8082 33.2286H32.2152C31.8267 33.2286 31.5121 33.5431 31.5121 33.9317C31.5121 34.3199 31.8267 34.6348 32.2152 34.6348H46.6746L46.2839 36.7834C46.2707 36.8544 46.2092 36.9057 46.137 36.9057H25.8776C25.8054 36.9057 25.7439 36.8544 25.7311 36.7834L25.34 34.6348H29.1533C29.5415 34.6348 29.8565 34.3199 29.8565 33.9317C29.8565 33.5431 29.5415 33.2286 29.1533 33.2286H23.2065C23.1387 33.2286 23.079 33.1821 23.0618 33.1154C23.06 33.1081 23.0578 33.1008 23.0559 33.0934L20.7605 25.28C20.0658 22.9304 20.5082 20.4574 21.9745 18.4945C23.4408 16.532 25.6868 15.4062 28.1367 15.4062C28.8659 15.4062 29.5869 15.5081 30.2802 15.7087C34.0269 16.7938 37.9881 16.7938 41.7345 15.7087C42.4277 15.5081 43.1488 15.4062 43.8779 15.4062C45.7628 15.4062 47.5715 16.0903 48.9715 17.3325C49.2619 17.5903 49.7065 17.564 49.9643 17.2735C50.2221 16.9828 50.1954 16.5386 49.905 16.2808C48.2475 14.8101 46.107 14 43.8779 14C43.0166 14 42.1637 14.1205 41.3434 14.3578C37.8526 15.3689 34.162 15.3689 30.6713 14.3578C29.851 14.1205 28.9981 14 28.1367 14C25.2389 14 22.5821 15.3315 20.8477 17.6529C19.1133 19.9743 18.59 22.8996 19.4118 25.6773L21.7039 33.4805C21.8859 34.1609 22.5022 34.6348 23.2065 34.6348H23.9107L24.3476 37.0349C24.482 37.7751 25.1258 38.3119 25.8776 38.3119H28.9417L29.4382 42.5892L28.9428 42.7218C28.4301 42.8591 28.0016 43.188 27.7365 43.6476C27.471 44.1072 27.4007 44.6426 27.538 45.1549C27.7757 46.0415 28.5802 46.6274 29.4573 46.6274C29.6041 46.6274 29.7532 46.6099 29.9019 46.5758L30.1546 48.7514L29.4844 48.9313C28.4264 49.2147 27.7962 50.306 28.0796 51.3644C28.3173 52.2506 29.1218 52.8369 29.9989 52.8369C30.1688 52.8369 30.341 52.8149 30.5127 52.7688L30.6178 52.7406L30.8705 54.914L30.2966 55.0678C29.7839 55.2052 29.3558 55.534 29.0903 55.9936C28.8252 56.4532 28.7549 56.9882 28.8922 57.5009C29.0292 58.0133 29.358 58.4417 29.8176 58.7072C30.1238 58.8837 30.4633 58.9742 30.8075 58.9742C30.98 58.9742 31.1539 58.9515 31.325 58.9057L31.3341 58.9031L31.5256 60.5515C31.6212 61.3773 32.3207 62.0002 33.1523 62.0002H38.8626C39.6939 62.0002 40.3934 61.3773 40.4894 60.5515L40.9812 56.3184L41.7183 56.1207C42.776 55.8372 43.4062 54.7459 43.1228 53.688C42.9082 52.8874 42.231 52.3326 41.4558 52.2323L41.7433 49.7596L42.5306 49.5487C43.5882 49.2656 44.2185 48.1739 43.935 47.116C43.716 46.2986 43.0155 45.7372 42.2201 45.6544L42.5053 43.2012L43.0719 43.0496C44.1302 42.7658 44.7601 41.6744 44.4766 40.6165C44.2771 39.872 43.6776 39.3402 42.9712 39.1886L43.0733 38.3123H46.137C46.8892 38.3123 47.5327 37.7751 47.6674 37.0353L48.1043 34.6348H48.8082C49.5168 34.6348 50.136 34.1551 50.314 33.4684C50.3759 33.2297 51.7166 28.6791 52.6028 25.6788C53.2737 23.4094 53.0456 21.0082 51.9598 18.9175ZM39.0923 60.3889C39.0787 60.5057 38.9798 60.5936 38.8626 60.5936H33.152C33.0348 60.5936 32.9359 60.5057 32.9224 60.3889L32.707 58.5351L39.52 56.7095L39.0923 60.3889ZM41.7641 54.0516C41.8473 54.3607 41.6631 54.6793 41.354 54.7624L30.9609 57.5471C30.8112 57.5874 30.6548 57.5665 30.5208 57.4892C30.3864 57.4116 30.2904 57.2867 30.2505 57.1369C30.2102 56.9871 30.2307 56.8308 30.3084 56.6967C30.386 56.5623 30.5109 56.4664 30.6607 56.4261L41.0537 53.6414C41.1038 53.6279 41.154 53.6217 41.2038 53.6217C41.4598 53.6213 41.6949 53.7927 41.7641 54.0516ZM40.0129 52.4644L32.2434 54.5463L31.9911 52.3725L40.2817 50.1511L40.0129 52.4644ZM42.5767 47.4796C42.6595 47.7887 42.4753 48.1077 42.1662 48.1904L30.1487 51.4105C29.8396 51.4936 29.5206 51.3094 29.4379 51.0003C29.3551 50.6913 29.5393 50.3727 29.8484 50.2895L41.8659 47.0695C41.9161 47.0559 41.9666 47.0497 42.0161 47.0497C42.2724 47.0497 42.5075 47.2207 42.5767 47.4796ZM43.1184 40.9801C43.2011 41.2892 43.0169 41.6082 42.7078 41.6909L38.4115 42.8423C38.0365 42.9426 37.8138 43.3283 37.9145 43.7033C38.0149 44.0782 38.4001 44.3009 38.7755 44.2006L41.0438 43.5927L40.775 45.906L31.5275 48.3838L31.2752 46.2103L35.8154 44.9938C36.1908 44.8931 36.4131 44.5074 36.3127 44.1324C36.2124 43.7575 35.8268 43.5348 35.4514 43.6351L29.6071 45.2014C29.298 45.2842 28.9794 45.1 28.8963 44.7909C28.8563 44.6415 28.8768 44.4851 28.9545 44.3507C29.0318 44.2167 29.157 44.1204 29.3068 44.0804L42.4076 40.57C42.7166 40.4868 43.0356 40.6714 43.1184 40.9801ZM41.5371 39.3472L30.8115 42.2212L30.3574 38.3119H41.6576L41.5371 39.3472Z" fill="white"/>
<path d="M41.3434 18.1079C37.8527 19.119 34.162 19.119 30.6713 18.1079C30.2985 18.0002 29.9081 18.2148 29.8004 18.588C29.6924 18.9608 29.907 19.3508 30.2802 19.4588C32.1533 20.0015 34.0803 20.2729 36.0073 20.2729C37.9343 20.2729 39.8613 20.0015 41.7345 19.4588C42.1076 19.3508 42.3226 18.9608 42.2146 18.588C42.1066 18.2148 41.7162 18.0002 41.3434 18.1079Z" fill="white"/>
</g>
<defs>
<clipPath id="clip0_19_14">
<rect width="48" height="48" fill="white" transform="translate(12 14)"/>
</clipPath>
</defs>
</svg>
